<svg width="105" height="108" viewBox="0 0 105 108" fill="none" xmlns="http://www.w3.org/2000/svg">
<path d="M52.4309 100.072C81.1497 100.072 104.431 77.8352 104.431 50.4045C104.431 22.9738 81.1497 0.736877 52.4309 0.736877C23.7121 0.736877 0.430908 22.9738 0.430908 50.4045C0.430908 77.8352 23.7121 100.072 52.4309 100.072Z" fill="#A3B2FF"/>
<path d="M63.317 90.2459V95.8707C63.317 95.8707 65.2882 97.7091 71.8334 98.7367C78.3785 99.7642 78.2224 102.183 77.9731 102.91C77.6469 103.856 73.6718 104.222 72.4462 104.271C71.2206 104.317 70.5798 105.177 68.8462 106.4C68.0936 106.931 67.5717 106.668 64.8525 105.312C62.1357 103.956 60.4347 102.553 59.3862 101.934C58.4588 101.386 56.4247 99.7829 57.0421 98.4571C57.9672 96.4742 58.7874 96.6652 58.7105 95.2159C58.6336 93.7666 58.6779 91.3527 58.6779 91.3527L63.3147 90.2459H63.317Z" fill="#FFCC33"/>
<path d="M63.5463 89.9545C63.6954 91.7417 63.8935 94.0904 63.975 95.8706L63.7653 95.3906C64.5272 95.9801 65.4243 96.3575 66.3214 96.7071C67.7451 97.2453 69.2573 97.6111 70.7601 97.9094C72.8549 98.2822 75.1453 98.5967 76.9744 99.7548C78.1045 100.456 79.0738 101.81 78.5029 103.21C78.1977 103.828 77.4544 104.058 76.8696 104.242C75.3341 104.66 73.8568 104.797 72.3073 104.893C71.8483 104.953 71.4708 105.181 71.0165 105.522C70.7858 105.699 69.6697 106.573 69.4553 106.722C69.3575 106.789 69.206 106.906 69.1035 106.969C68.5373 107.404 67.6285 107.295 67.0507 107.036C66.2888 106.74 65.5804 106.367 64.8581 106.016C62.9614 105.121 61.1463 103.872 59.4477 102.688C58.4924 102.094 57.5953 101.451 56.9452 100.491C56.0365 99.1816 56.4582 98.2449 57.353 97.0822C57.7934 96.4973 58.4388 96.0896 58.3805 95.2974C58.3759 93.9459 58.4341 92.5712 58.518 91.2291C60.1537 90.7584 61.8616 90.318 63.5439 89.9569L63.5463 89.9545ZM63.0873 90.5347C61.6333 90.9238 60.2143 91.2291 58.7184 91.5133L58.8465 91.3549C58.8838 92.4011 58.9211 93.4496 58.9887 94.4888C59.0143 95.0271 59.1448 95.6422 58.9561 96.1828C58.7463 96.756 58.3432 97.1055 58.0473 97.5762C57.819 97.9117 57.5301 98.4709 57.4369 98.8134C57.4089 100.025 59.1844 101.102 60.1118 101.675C61.8616 102.868 63.523 103.979 65.4173 104.895C66.107 105.233 66.7921 105.596 67.4934 105.871C67.8802 105.992 68.1039 106.139 68.4417 105.925C68.521 105.874 68.6561 105.776 68.733 105.72C68.9241 105.585 70.0774 104.697 70.2895 104.531C70.8813 104.077 71.6199 103.679 72.4052 103.66C73.7776 103.588 75.2432 103.443 76.5317 103.08C76.8416 102.998 77.2401 102.83 77.4032 102.693C77.4032 102.698 77.3985 102.705 77.4008 102.707L77.4078 102.679C77.7131 101.376 76.0401 100.547 75.0102 100.163C74.1061 99.8154 73.0436 99.5824 72.086 99.4192C69.9982 99.0814 67.8592 98.6573 65.8694 97.9187C64.7369 97.4736 63.537 97.0006 62.6469 96.1362C62.7377 94.2651 62.9521 92.4454 63.0896 90.5324L63.0873 90.5347Z" fill="#1D1D1B"/>
<path d="M61.0187 102.395C61.0723 102.299 62.0625 102.791 64.4718 103.684C66.8345 104.557 67.2632 104.595 67.5312 104.604C69.062 104.66 69.6935 103.965 71.2476 103.518C72.3544 103.199 73.9855 102.989 76.2037 103.546L71.7113 104.413L69.0551 106.249C68.398 106.293 67.7386 106.335 67.0815 106.379C62.0439 103.308 60.9581 102.502 61.0163 102.395H61.0187Z" fill="#FFF3D4"/>
<path d="M60.3895 102.593C59.2734 100.384 59.6532 99.4469 59.9002 99.0718C60.7088 97.8485 63.2229 98.226 68.2535 98.9856C72.8321 99.6776 74.1276 100.43 74.6728 100.78C76.2503 101.789 77.2382 103.028 77.5644 102.788C77.8603 102.572 77.4922 101.234 76.6673 100.283C75.733 99.2046 74.6915 99.1697 71.5785 98.48C69.2391 97.9604 66.9463 97.2567 64.6209 96.6812L63.0901 95.6186L63.4908 90.5554L58.6746 91.7181V95.847L57.2603 98.4497L57.3977 100.186L60.3895 102.593Z" fill="#D1921B"/>
<path d="M63.5463 89.9545C63.6954 91.7417 63.8935 94.0904 63.975 95.8706L63.7653 95.3906C64.5272 95.9801 65.4243 96.3575 66.3214 96.7071C67.7451 97.2453 69.2573 97.6111 70.7601 97.9094C72.8549 98.2822 75.1453 98.5967 76.9744 99.7548C78.1045 100.456 79.0738 101.81 78.5029 103.21C78.1977 103.828 77.4544 104.058 76.8696 104.242C75.3341 104.66 73.8568 104.797 72.3073 104.893C71.8483 104.953 71.4708 105.181 71.0165 105.522C70.7858 105.699 69.6697 106.573 69.4553 106.722C69.3575 106.789 69.206 106.906 69.1035 106.969C68.5373 107.404 67.6285 107.295 67.0507 107.036C66.2888 106.74 65.5804 106.367 64.8581 106.016C62.9614 105.121 61.1463 103.872 59.4477 102.688C58.4924 102.094 57.5953 101.451 56.9452 100.491C56.0365 99.1816 56.4582 98.2449 57.353 97.0822C57.7934 96.4973 58.4388 96.0896 58.3805 95.2974C58.3759 93.9459 58.4341 92.5712 58.518 91.2291C60.1537 90.7584 61.8616 90.318 63.5439 89.9569L63.5463 89.9545ZM63.0873 90.5347C61.6333 90.9238 60.2143 91.2291 58.7184 91.5133L58.8465 91.3549C58.8838 92.4011 58.9211 93.4496 58.9887 94.4888C59.0143 95.0271 59.1448 95.6422 58.9561 96.1828C58.7463 96.756 58.3432 97.1055 58.0473 97.5762C57.819 97.9117 57.5301 98.4709 57.4369 98.8134C57.4089 100.025 59.1844 101.102 60.1118 101.675C61.8616 102.868 63.523 103.979 65.4173 104.895C66.107 105.233 66.7921 105.596 67.4934 105.871C67.8802 105.992 68.1039 106.139 68.4417 105.925C68.521 105.874 68.6561 105.776 68.733 105.72C68.9241 105.585 70.0774 104.697 70.2895 104.531C70.8813 104.077 71.6199 103.679 72.4052 103.66C73.7776 103.588 75.2432 103.443 76.5317 103.08C76.8416 102.998 77.2401 102.83 77.4032 102.693C77.4032 102.698 77.3985 102.705 77.4008 102.707L77.4078 102.679C77.7131 101.376 76.0401 100.547 75.0102 100.163C74.1061 99.8154 73.0436 99.5824 72.086 99.4192C69.9982 99.0814 67.8592 98.6573 65.8694 97.9187C64.7369 97.4736 63.537 97.0006 62.6469 96.1362C62.7377 94.2651 62.9521 92.4454 63.0896 90.5324L63.0873 90.5347Z" fill="#1D1D1B"/>
<path d="M45.2576 90.8682V95.7474C45.2576 95.7474 42.9578 97.3691 36.0282 98.2592C29.0986 99.1516 29.2198 101.421 29.5437 102.029C29.8675 102.637 33.4745 103.124 34.7723 103.164C36.0702 103.204 36.5105 104.623 37.3447 105.028C38.1789 105.433 40.0825 104.583 42.9602 103.406C45.8378 102.232 48.5383 101.309 49.6474 101.055C50.922 100.764 52.7674 99.4778 52.0381 98.2172C51.0035 96.4301 50.0529 96.4348 50.1344 95.1765C50.216 93.9206 50.1694 91.8259 50.1694 91.8259L45.2599 90.8659L45.2576 90.8682Z" fill="#FFCC33"/>
<path d="M45.7492 91.4676C45.945 93.0753 45.9776 94.4966 45.8401 96.0974C44.8242 96.7778 43.6638 97.2065 42.5128 97.577C40.4437 98.2294 38.3187 98.6185 36.182 98.9168C34.6581 99.1404 33.1459 99.3991 31.7502 100.01C31.2143 100.266 30.7343 100.522 30.3895 100.939C30.2473 101.105 30.1308 101.356 30.1425 101.547C30.1448 101.601 30.1588 101.662 30.1704 101.68C30.1704 101.683 30.1844 101.71 30.1518 101.652C30.1145 101.606 30.1168 101.606 30.1029 101.596C30.0912 101.589 30.1075 101.596 30.1075 101.596C30.2566 101.69 30.4873 101.762 30.7343 101.836C31.9716 102.17 33.3789 102.356 34.6931 102.444C35.3059 102.437 35.9769 102.722 36.394 103.123C36.8461 103.514 37.1513 104.02 37.5707 104.346C37.6429 104.392 37.7012 104.416 37.7897 104.423C38.1719 104.446 38.6775 104.304 39.0829 104.178C40.0429 103.873 41.0262 103.463 42.0095 103.069C44.4887 102.093 47.0121 101.128 49.6171 100.485C50.4024 100.268 51.3577 99.7742 51.6699 98.9797C51.7561 98.7001 51.642 98.502 51.4882 98.2457C51.162 97.6842 50.7822 97.2741 50.3045 96.7614C50.1181 96.5517 49.9014 96.2791 49.7919 95.9343C49.6917 95.6314 49.6987 95.2982 49.7266 94.9859C49.7965 93.9491 49.8105 92.8842 49.8198 91.831L50.1018 92.1666C48.5779 92.0151 47.2009 91.8241 45.7516 91.4606L45.7492 91.4676ZM44.7636 90.2699C46.6929 90.5658 48.6688 91.0295 50.5119 91.5631C50.5445 92.7211 50.5958 93.8652 50.5561 95.0372C50.5142 95.5848 50.6051 95.7922 50.9616 96.1603C51.4089 96.5984 51.9495 97.1552 52.3107 97.7354C53.5782 99.4503 51.4602 101.144 49.8991 101.561C49.4028 101.69 48.8855 101.85 48.4032 102.013C46.4156 102.687 44.463 103.484 42.5174 104.311C41.2778 104.812 40.0173 105.406 38.6705 105.728C37.4449 106.033 36.7039 105.658 35.9397 104.695C35.5971 104.295 35.3036 104.003 35.0216 103.924C34.8981 103.887 34.7607 103.873 34.6278 103.873C33.7331 103.829 32.8547 103.714 31.9716 103.568C31.0279 103.367 29.9887 103.279 29.1569 102.666C28.4252 101.955 28.7025 100.725 29.299 100.045C31.5778 97.6189 36.0492 97.782 39.1109 97.0946C40.1338 96.8943 41.1497 96.6566 42.14 96.363C43.0953 96.0718 44.046 95.7502 44.9081 95.2492L44.6494 95.7479C44.5376 93.984 44.5842 92.0174 44.7659 90.2722L44.7636 90.2699Z" fill="#1D1D1B"/>
<path d="M30.1122 101.951C31.142 102.077 32.1743 102.202 33.2041 102.328C32.9875 102.289 31.4123 101.99 31.3611 101.391C31.3215 100.923 32.2348 100.497 32.7894 100.247C35.8651 98.8517 38.046 99.7884 40.8677 98.2669C41.1916 98.0921 41.4386 97.9313 41.5761 97.8381C38.1742 98.3624 34.7723 98.8867 31.3704 99.4133L29.4551 101.256C29.6741 101.487 29.8931 101.72 30.1122 101.951Z" fill="#FFF3D4"/>
<path d="M45.258 90.8688V94.5899C45.258 94.5899 50.0323 96.454 49.5057 98.0012C48.9791 99.546 36.7556 104.553 36.7556 104.553L38.1024 105.131L48.1123 101.501L51.3837 100.189L52.4323 98.614L49.9647 95.6874L50.1651 91.8312L45.2557 90.8712L45.258 90.8688Z" fill="#D1921B"/>
<path d="M45.7492 91.4676C45.945 93.0753 45.9776 94.4966 45.8401 96.0974C44.8242 96.7778 43.6638 97.2065 42.5128 97.577C40.4437 98.2294 38.3187 98.6185 36.182 98.9168C34.6581 99.1404 33.1459 99.3991 31.7502 100.01C31.2143 100.266 30.7343 100.522 30.3895 100.939C30.2473 101.105 30.1308 101.356 30.1425 101.547C30.1448 101.601 30.1588 101.662 30.1704 101.68C30.1704 101.683 30.1844 101.71 30.1518 101.652C30.1145 101.606 30.1168 101.606 30.1029 101.596C30.0912 101.589 30.1075 101.596 30.1075 101.596C30.2566 101.69 30.4873 101.762 30.7343 101.836C31.9716 102.17 33.3789 102.356 34.6931 102.444C35.3059 102.437 35.9769 102.722 36.394 103.123C36.8461 103.514 37.1513 104.02 37.5707 104.346C37.6429 104.392 37.7012 104.416 37.7897 104.423C38.1719 104.446 38.6775 104.304 39.0829 104.178C40.0429 103.873 41.0262 103.463 42.0095 103.069C44.4887 102.093 47.0121 101.128 49.6171 100.485C50.4024 100.268 51.3577 99.7742 51.6699 98.9797C51.7561 98.7001 51.642 98.502 51.4882 98.2457C51.162 97.6842 50.7822 97.2741 50.3045 96.7614C50.1181 96.5517 49.9014 96.2791 49.7919 95.9343C49.6917 95.6314 49.6987 95.2982 49.7266 94.9859C49.7965 93.9491 49.8105 92.8842 49.8198 91.831L50.1018 92.1666C48.5779 92.0151 47.2009 91.8241 45.7516 91.4606L45.7492 91.4676ZM44.7636 90.2699C46.6929 90.5658 48.6688 91.0295 50.5119 91.5631C50.5445 92.7211 50.5958 93.8652 50.5561 95.0372C50.5142 95.5848 50.6051 95.7922 50.9616 96.1603C51.4089 96.5984 51.9495 97.1552 52.3107 97.7354C53.5782 99.4503 51.4602 101.144 49.8991 101.561C49.4028 101.69 48.8855 101.85 48.4032 102.013C46.4156 102.687 44.463 103.484 42.5174 104.311C41.2778 104.812 40.0173 105.406 38.6705 105.728C37.4449 106.033 36.7039 105.658 35.9397 104.695C35.5971 104.295 35.3036 104.003 35.0216 103.924C34.8981 103.887 34.7607 103.873 34.6278 103.873C33.7331 103.829 32.8547 103.714 31.9716 103.568C31.0279 103.367 29.9887 103.279 29.1569 102.666C28.4252 101.955 28.7025 100.725 29.299 100.045C31.5778 97.6189 36.0492 97.782 39.1109 97.0946C40.1338 96.8943 41.1497 96.6566 42.14 96.363C43.0953 96.0718 44.046 95.7502 44.9081 95.2492L44.6494 95.7479C44.5376 93.984 44.5842 92.0174 44.7659 90.2722L44.7636 90.2699Z" fill="#1D1D1B"/>
<path d="M33.2907 81.849C18.4156 78.0697 32.8224 61.1721 32.8224 61.1721C32.643 61.701 32.5078 62.0715 32.4402 62.2369C31.7203 64.0497 29.2807 70.1801 30.1242 75.3948C30.6484 78.6289 32.2958 80.6374 33.2884 81.849H33.2907Z" fill="#FCF9ED"/>
<mask id="mask0_804_6804" style="mask-type:luminance" maskUnits="userSpaceOnUse" x="26" y="61" width="8" height="21">
<path d="M33.2907 81.849C18.4156 78.0697 32.8224 61.1721 32.8224 61.1721C32.643 61.701 32.5078 62.0715 32.4402 62.2369C31.7203 64.0497 29.2807 70.1801 30.1242 75.3948C30.6484 78.6289 32.2958 80.6374 33.2884 81.849H33.2907Z" fill="white"/>
</mask>
<g mask="url(#mask0_804_6804)">
<path d="M28.3811 68.9194C28.3811 68.9194 24.9582 76.1193 27.491 78.5473C28.4417 79.4606 29.7442 80.903 31.5034 81.6928C32.2816 82.0424 32.9737 82.2358 33.4793 82.3499C33.2486 81.7907 33.0179 81.2315 32.7873 80.6723C32.3888 79.9034 31.9904 79.1321 31.5919 78.3632C30.8696 78.0416 29.9516 77.4917 29.192 76.5481C26.7291 73.498 28.2576 69.2526 28.3834 68.9171L28.3811 68.9194Z" fill="#CDC2B7"/>
</g>
<path d="M83.5893 74.5158C82.5175 78.4536 80.1175 81.04 79.3789 81.7972C76.4966 84.7494 68.8563 90.7237 57.2456 91.5392C53.1028 91.8305 45.155 92.3897 38.2114 87.3288C36.4195 86.0216 33.4441 83.8547 31.8946 79.9611C29.3991 73.6863 31.6849 65.6616 32.3606 63.2872C32.4235 63.0705 32.5447 62.5882 32.6938 61.9008C32.8965 60.9548 33.1528 59.615 33.3765 58.0259C33.451 57.4947 33.4976 56.8935 33.5023 56.0943C33.5349 50.2692 31.2934 48.489 30.606 42.6732C30.4266 41.1516 29.9653 36.8457 31.5707 31.885C34.4157 23.0936 41.2987 19.8269 42.5197 19.5543C43.256 19.3912 43.962 19.4378 43.962 19.4378C44.16 19.4518 44.3488 19.4774 44.5258 19.5123C44.0179 19.2607 43.5775 18.9298 43.5728 18.5291C43.5705 18.2867 43.729 18.1073 43.7849 18.0421C44.5025 17.2126 47.937 17.7811 48.417 17.865C47.6015 17.5062 42.2913 15.1342 42.6501 13.5031C42.8971 12.38 45.7538 12.0002 47.9137 12.1866C52.702 12.599 55.0437 17.145 55.1952 17.4502C61.6099 18.79 65.2448 21.9729 66.75 23.4898C74.2202 31.0135 74.0873 42.6871 71.2353 50.3787C69.9864 53.7479 68.2645 56.2248 67.0249 57.7673C67.5865 58.5199 68.1457 59.3005 68.7026 60.1044C70.8765 63.2453 72.6777 66.3396 74.1805 69.2918C76.019 65.7105 78.335 63.5715 79.4442 63.9886C80.5742 64.415 80.9191 67.6701 79.7587 71.8036C81.2919 70.3659 82.8367 69.646 83.5893 70.1306C84.6052 70.783 83.8829 73.4393 83.5893 74.5158Z" fill="#FCF9ED"/>
<mask id="mask1_804_6804" style="mask-type:luminance" maskUnits="userSpaceOnUse" x="30" y="12" width="55" height="80">
<path d="M83.5893 74.5158C82.5175 78.4536 80.1175 81.04 79.3789 81.7972C76.4966 84.7494 68.8563 90.7237 57.2456 91.5392C53.1028 91.8305 45.155 92.3897 38.2114 87.3288C36.4195 86.0216 33.4441 83.8547 31.8946 79.9611C29.3991 73.6863 31.6849 65.6616 32.3606 63.2872C32.4235 63.0705 32.5447 62.5882 32.6938 61.9008C32.8965 60.9548 33.1528 59.615 33.3765 58.0259C33.451 57.4947 33.4976 56.8935 33.5023 56.0943C33.5349 50.2692 31.2934 48.489 30.606 42.6732C30.4266 41.1516 29.9653 36.8457 31.5707 31.885C34.4157 23.0936 41.2987 19.8269 42.5197 19.5543C43.256 19.3912 43.962 19.4378 43.962 19.4378C44.16 19.4518 44.3488 19.4774 44.5258 19.5123C44.0179 19.2607 43.5775 18.9298 43.5728 18.5291C43.5705 18.2867 43.729 18.1073 43.7849 18.0421C44.5025 17.2126 47.937 17.7811 48.417 17.865C47.6015 17.5062 42.2913 15.1342 42.6501 13.5031C42.8971 12.38 45.7538 12.0002 47.9137 12.1866C52.702 12.599 55.0437 17.145 55.1952 17.4502C61.6099 18.79 65.2448 21.9729 66.75 23.4898C74.2202 31.0135 74.0873 42.6871 71.2353 50.3787C69.9864 53.7479 68.2645 56.2248 67.0249 57.7673C67.5865 58.5199 68.1457 59.3005 68.7026 60.1044C70.8765 63.2453 72.6777 66.3396 74.1805 69.2918C76.019 65.7105 78.335 63.5715 79.4442 63.9886C80.5742 64.415 80.9191 67.6701 79.7587 71.8036C81.2919 70.3659 82.8367 69.646 83.5893 70.1306C84.6052 70.783 83.8829 73.4393 83.5893 74.5158Z" fill="white"/>
</mask>
<g mask="url(#mask1_804_6804)">
<path d="M32.9499 60.624C32.5958 61.3183 32.2626 61.761 32.4397 62.2364C33.0362 63.8558 38.7238 63.6577 43.3374 62.4018C47.4919 61.2694 49.0786 59.7455 56.0688 55.9755C59.3985 54.179 62.1526 52.8462 63.8559 52.0447C53.8716 52.2567 43.8849 52.4664 33.9006 52.6785C34.4668 56.5533 33.7585 59.0372 32.9499 60.624Z" fill="#CDC2B7"/>
<path d="M31.5096 70.9583C31.9197 72.9063 32.7795 75.7 34.7554 78.4588C39.6578 85.3092 47.6989 86.7398 52.0048 87.5064C63.527 89.5569 72.9987 85.3767 76.9482 83.3263C75.7785 85.7496 74.6088 88.1728 73.4414 90.5984L39.5809 94.1401C39.5809 94.1401 34.8439 88.1752 34.6692 87.8233C34.4944 87.4715 28.4409 83.2611 28.4409 83.2611C29.0164 80.8914 29.6036 78.5101 30.2024 76.1171C30.6358 74.3882 31.0716 72.6663 31.5096 70.956V70.9583Z" fill="#CDC2B7"/>
<path d="M59.9324 70.454C59.9417 71.3347 60.1141 78.2993 65.4267 81.9016C66.3191 82.5051 69.008 84.3295 72.4984 83.7773C73.2417 83.6584 76.1286 83.1552 77.9927 80.5199C79.2672 78.7164 79.4094 76.8453 79.421 76.0555C78.0323 77.4255 76.6436 78.7979 75.2572 80.168L68.5979 80.662L62.6935 75.7945C61.7731 74.0143 60.8551 72.2341 59.9347 70.454H59.9324Z" fill="#CDC2B7"/>
<path d="M78.4198 68.2498C78.9091 66.1458 78.6528 63.7831 78.6528 63.7831C78.8369 63.846 79.5848 64.1233 80.0392 64.9271C80.3701 65.512 80.3677 66.1108 80.3328 66.5582C80.2186 67.9702 79.5173 70.997 78.315 74.8998C76.5231 73.8187 75.2672 73.0497 75.2789 73.0311C75.3511 73.0404 77.6556 71.5282 78.4175 68.2498H78.4198Z" fill="#CDC2B7"/>
<path d="M33.791 27.735C33.8889 27.8096 34.5879 26.8403 35.9627 25.6077C38.8007 23.0586 41.4942 22.0963 42.1257 21.8796C43.328 21.4695 44.3462 21.2854 44.9101 21.1992C46.3408 20.9825 47.578 20.9965 48.5077 21.0687C47.8017 20.5561 47.1493 20.2439 46.6763 20.0528C46.3105 19.906 45.0755 19.4423 43.3839 19.4377C43.3839 19.4377 43.1719 19.4377 42.9808 19.4447C40.9606 19.5309 37.864 21.9844 37.1277 22.5809C34.2407 26.6818 33.7002 27.6628 33.7934 27.735H33.791Z" fill="#CDC2B7"/>
<path d="M43.4836 13.3587C44.8956 13.4216 45.8882 13.9109 47.1278 14.54C49.2458 15.6118 50.6392 16.8584 51.231 17.4223C51.944 18.1003 52.4893 18.7341 52.8667 19.2095C51.3848 18.7761 49.7491 18.2099 48.0132 17.4573C45.9674 16.5718 44.1872 15.6025 42.6727 14.6682C42.4537 14.2627 42.2347 13.8573 42.0156 13.4542C42.3651 13.3936 42.8731 13.3354 43.4812 13.361L43.4836 13.3587Z" fill="#CDC2B7"/>
<path d="M44.0003 17.9277C44.2589 18.3354 44.5129 18.6034 44.6923 18.7688C45.4962 19.5121 46.3443 19.6519 47.5699 20.4861C47.761 20.6166 48.008 20.796 47.9824 20.8682C47.9544 20.9474 47.6328 20.8682 47.4954 20.8356C46.4701 20.5839 42.8259 19.6449 42.269 19.5005C42.7723 19.2768 43.2756 19.0531 43.7789 18.8317L43.8605 17.8112L44.0003 17.9277Z" fill="#CDC2B7"/>
<path d="M60.3716 70.454C61.7906 72.2505 64.377 74.9417 68.3987 76.5285C70.1695 77.2275 74.818 79.0612 77.663 77.0015C78.4715 76.4166 78.9748 75.6314 79.0564 75.6966C79.1938 75.8061 78.0964 78.3343 75.7663 79.5366C73.879 80.5129 71.9613 80.2146 71.1621 80.0375C71.1621 80.0375 66.6651 79.4271 62.3032 74.3778C61.0986 72.9844 60.7048 71.7821 60.5929 71.4116C60.4718 71.0132 60.4089 70.673 60.3739 70.454H60.3716Z" fill="white"/>
<path d="M78.7533 73.3368C81.6472 71.503 82.7121 71.4192 83.1012 71.7826C83.467 72.1228 83.2946 72.9127 83.474 72.9337C83.7723 72.9686 84.3222 70.7691 84.3222 70.7691C84.3222 70.7691 83.022 69.4759 82.8938 69.5435C82.768 69.611 81.0461 70.7691 81.0461 70.7691L79.2403 72.4723C79.0772 72.7613 78.9141 73.0502 78.751 73.3391L78.7533 73.3368Z" fill="white"/>
<path d="M50.3013 31.5848C50.3363 31.8714 50.4808 32.7195 51.1891 33.4115C52.2889 34.4834 53.7871 34.2457 53.9502 34.2177C53.5681 34.4251 52.8015 34.7746 51.7809 34.777C51.0866 34.777 50.5274 34.6162 50.1685 34.481C50.0078 34.3156 49.798 34.05 49.6909 33.6748C49.3833 32.596 50.2291 31.6617 50.299 31.5871L50.3013 31.5848Z" fill="#CDC2B7"/>
<path d="M43.205 30.6339C43.2539 30.8762 43.5219 32.3138 42.6784 33.1503C42.3056 33.5208 41.814 33.6746 41.2804 33.84C40.6233 34.0451 40.0524 34.094 39.668 34.1033C39.9219 34.2664 40.3134 34.4715 40.819 34.5414C41.2105 34.595 41.5017 34.546 41.807 34.4994C42.2846 34.4272 42.9673 34.3387 43.8458 34.2664C43.8411 33.9216 43.8225 33.5534 43.7805 33.162C43.6734 32.1787 43.4497 31.3259 43.205 30.6315V30.6339Z" fill="#CDC2B7"/>
</g>
<path d="M49.5204 37.3511C49.5903 37.7146 49.6672 38.2621 49.6299 38.9309C49.595 39.5577 49.5018 39.5763 49.5414 39.8512C49.6555 40.6388 50.5153 40.9464 51.671 41.8318C52.8151 42.7102 52.5937 42.8873 53.3184 43.3696C55.0147 44.502 57.1467 44.1455 58.4492 43.9288C59.5047 43.7518 60.7816 43.5397 62.0678 42.5471C63.2421 41.6407 63.834 40.5386 64.1066 39.9165C60.3249 40.3592 56.5455 40.8019 52.7638 41.2423C51.6827 39.9444 50.5992 38.6466 49.5181 37.3488L49.5204 37.3511Z" fill="#E8DDD4"/>
<path d="M41.8175 40.5203C42.7659 40.0077 43.3903 39.4811 43.416 39.5137C43.4486 39.5557 42.4327 40.3921 41.9061 40.8279C40.2611 42.1816 39.8673 42.4263 39.3267 42.5964C38.8793 42.7385 38.5298 42.7595 37.8285 42.8014C36.7636 42.8643 35.6592 42.9296 34.5128 42.3541C33.9396 42.0651 33.5714 41.7249 33.2988 41.4756C32.4973 40.737 32.0919 39.9844 31.8286 39.4788C31.4441 38.7401 30.9222 37.5052 30.7544 35.8462C31.2111 36.6734 32.679 39.071 35.7524 40.4178C37.4417 41.1564 38.9795 41.3009 39.9372 41.3148C40.3939 41.1727 41.0649 40.9327 41.8222 40.5226L41.8175 40.5203Z" fill="#E8DDD4"/>
<path d="M59.6466 67.4444C60.8675 71.8832 63.3211 76.6109 67.5897 78.6124C72.1939 80.6698 76.7562 79.4372 79.3962 75.0474L79.762 75.8629C78.1053 75.4062 75.4374 74.6606 74.5916 73.0319L74.3376 72.4936C74.9201 72.482 75.5609 72.468 76.1411 72.4214C76.4906 72.3888 76.9053 72.3655 77.2246 72.256L77.3271 72.8362C74.1931 72.4214 73.3031 69.0032 72.2056 66.5706C73.133 67.9756 73.8436 69.5624 75.0413 70.7554C75.731 71.4218 76.5209 71.967 77.4529 72.2164L78.2661 72.3865L77.5554 72.7965C76.7469 73.1577 75.8219 73.1507 74.9574 73.2532L75.2883 72.701C76.176 74.0548 79.1748 74.6326 80.7196 74.9216C79.4428 77.4963 77.411 79.8007 74.6359 80.8306C71.453 82.0376 67.6946 81.4318 64.9847 79.3953C61.3452 76.6481 59.4555 71.8971 59.6442 67.4444H59.6466Z" fill="#1D1D1B"/>
<path d="M49.1586 34.2727C49.3496 32.5647 50.03 30.8964 51.004 29.4984L51.0343 29.517C50.5123 30.6587 50.2048 31.8657 50.1162 33.1053C50.0859 33.5107 50.0906 33.9162 50.0883 34.3193L49.1562 34.275L49.1586 34.2727Z" fill="#1D1D1B"/>
<path d="M64.8704 37.8932C63.3302 41.083 58.3485 43.5156 54.2336 41.9265C51.2954 40.7918 49.4267 37.8466 49.5991 34.7383L53.8585 34.7662C54.4084 37.3363 56.5287 38.5503 58.4627 37.4808C59.7675 36.7584 59.8328 36.6 59.9982 34.8571L65.397 34.8897C65.4599 35.668 65.4156 36.7584 64.868 37.8932H64.8704Z" fill="white"/>
<path d="M49.7987 36.859C50.0829 36.8264 50.3672 36.7961 50.6538 36.7681C55.7054 36.2718 60.5566 36.4769 65.1561 37.1736C65.1911 36.4116 65.226 35.6497 65.2586 34.8878L49.7544 34.501C49.7684 35.2862 49.7847 36.0738 49.7987 36.859Z" fill="#EDEDED"/>
<path d="M64.8704 37.8932C63.3302 41.083 58.3485 43.5156 54.2336 41.9265C51.2954 40.7918 49.4267 37.8466 49.5991 34.7383L53.8585 34.7662C54.4084 37.3363 56.5287 38.5503 58.4627 37.4808C59.7675 36.7584 59.8328 36.6 59.9982 34.8571L65.397 34.8897C65.4599 35.668 65.4156 36.7584 64.868 37.8932H64.8704Z" stroke="#1D1D1B" stroke-width="0.932025" stroke-miterlimit="10"/>
<path d="M60.2683 34.8622C60.1355 36.605 59.1569 37.8773 57.8963 38.264C56.1837 38.7906 54.0237 37.346 53.5857 34.7759L60.2683 34.8622Z" fill="#1D1D1B" stroke="#1D1D1B" stroke-width="0.932025" stroke-miterlimit="10"/>
<path d="M43.6327 34.1104C43.5605 32.6308 43.4067 31.093 42.9453 29.674L42.9779 29.6577C43.3787 30.3194 43.6513 31.0534 43.917 31.7803C44.1663 32.5306 44.4575 33.2832 44.5647 34.0708L43.6327 34.1104Z" fill="#1D1D1B"/>
<path d="M31.6771 37.4164C32.933 40.364 36.9896 42.6125 40.3426 41.1445C42.7356 40.096 44.2594 37.3745 44.1173 34.5015L40.9204 34.5435C40.4731 36.9178 38.8514 38.232 37.1015 37.745C35.8153 37.3885 34.8157 36.2118 34.6805 34.6017L31.2437 34.6437C31.1924 35.3636 31.2274 36.3702 31.6748 37.4188L31.6771 37.4164Z" fill="white"/>
<path d="M31.2811 36.802C31.5164 36.7694 31.7518 36.7368 31.9894 36.7065C36.1742 36.1822 40.2052 36.3127 44.0312 36.9069C44.0498 36.1939 44.0661 35.4832 44.0848 34.7702L31.2112 34.6001C31.2345 35.3341 31.2578 36.068 31.2811 36.802Z" fill="#EDEDED"/>
<path d="M31.6771 37.4164C32.933 40.364 36.9896 42.6125 40.3426 41.1445C42.7356 40.096 44.2594 37.3745 44.1173 34.5015L40.9204 34.5435C40.4731 36.9178 38.8514 38.232 37.1015 37.745C35.8153 37.3885 34.8157 36.2118 34.6805 34.6017L31.2437 34.6437C31.1924 35.3636 31.2274 36.3702 31.6748 37.4188L31.6771 37.4164Z" stroke="#1D1D1B" stroke-width="0.932025" stroke-miterlimit="10"/>
<path d="M34.6599 34.6164C34.7951 36.2265 35.7923 37.4032 37.0809 37.7597C38.8284 38.2467 40.4734 36.9185 40.9208 34.5419L34.6599 34.6141V34.6164Z" fill="#1D1D1B" stroke="#1D1D1B" stroke-width="0.932025" stroke-miterlimit="10"/>
<path d="M33.378 81.7227C32.2363 81.7414 31.0876 81.3965 30.0297 80.9561C27.8418 80.0428 26.1269 77.9783 25.8869 75.5877C25.3673 70.112 29.4938 64.9113 32.728 60.8943L33.1311 60.4283C32.7443 61.612 32.241 62.7653 31.9171 63.956C30.7427 68.3715 30.561 73.1062 31.8309 77.5123C32.1804 78.7402 32.6208 79.9449 33.159 81.1029C33.2545 81.2893 33.3384 81.5223 33.378 81.7204V81.7227ZM33.1986 81.5759C33.0845 81.4571 33.0122 81.3429 32.9586 81.1961C32.4483 80.0148 32.0126 78.8008 31.6794 77.5566C30.4468 73.1155 30.6029 68.3552 31.726 63.9047C31.9847 62.8888 32.3878 61.9172 32.7093 60.9362L32.912 61.0504C31.5653 62.7164 30.4212 64.5572 29.4868 66.4748C27.0356 71.6522 25.3813 77.5286 31.5163 80.6649C31.8891 80.8583 32.2922 81.061 32.6744 81.2427C32.8654 81.3383 32.9796 81.4734 33.201 81.5759H33.1986Z" fill="#1D1D1B"/>
<path d="M84.4358 74.7465C82.9679 80.383 78.4546 84.4932 73.6104 87.3615C68.7988 90.2205 63.3301 91.9704 57.752 92.4177C52.9357 92.8814 47.8259 92.7393 43.2124 91.0267C41.2225 90.2787 39.3118 89.2535 37.5946 88.0069C35.9053 86.793 34.2067 85.3506 32.9414 83.638C29.8588 79.6 29.5023 74.1058 30.2013 69.2802C30.5252 66.7078 31.2708 64.231 31.9022 61.7331C32.2121 60.2908 32.5174 58.746 32.6805 57.299C32.79 56.0128 32.7457 54.6707 32.5826 53.3845C32.2401 50.7096 31.0378 48.2304 30.4599 45.5602C28.6215 37.4492 30.7698 28.1919 37.1146 22.5718C38.5429 21.3112 40.1344 20.1881 41.9099 19.4728C42.7627 19.1303 43.6877 19.079 44.5964 19.1512L44.3611 19.8433C43.9883 19.7431 43.4827 19.5916 43.2054 19.2118C42.9025 18.7901 42.9304 18.1353 43.2683 17.7509C44.2026 16.5532 47.1851 17.1148 48.5133 17.2942L48.1801 18.3963C47.5323 18.0817 46.8682 17.8068 46.2135 17.5109C45.1184 16.9447 44.0861 16.3901 43.0959 15.5583C42.6578 15.1692 42.2664 14.7777 42.0427 14.1626C41.544 12.6504 43.2939 11.8791 44.4496 11.6904C49.394 10.7537 53.3598 12.7692 55.7295 17.1823L55.3147 16.8608C56.0021 17.3315 56.8176 17.4876 57.5842 17.7043L58.3461 17.9489C65.7231 20.2953 71.1894 26.2649 72.923 33.8097C74.7661 41.6713 73.3517 50.3717 68.7149 57.0381C68.5611 57.2617 68.4027 57.4831 68.2419 57.7021C68.1068 57.9072 67.8691 58.1472 67.7805 58.3778L67.8015 57.1872C70.2854 61.0248 72.6247 64.9533 74.6286 69.0635H73.7245C74.5727 67.4394 77.6507 62.3786 79.8852 63.6601C81.7819 65.142 80.8638 69.9443 80.3163 71.9644L79.3563 71.3819C80.5423 70.0212 83.583 67.8193 84.7457 70.3613C85.2397 71.8176 84.7667 73.3671 84.4335 74.7489L84.4358 74.7465ZM82.7395 74.2852C82.9423 73.5745 83.1147 72.8848 83.2102 72.2138C83.2825 71.7384 83.3267 71.2118 83.1543 70.8134C83.1496 70.8111 83.1496 70.7854 83.0704 70.7761C82.6836 70.7248 82.3038 70.9112 81.9031 71.0883C80.8941 71.5543 79.6569 72.6448 78.7412 73.3322L79.1978 71.6475C79.7175 69.7975 80.0833 67.8449 79.8736 65.9389C79.834 65.4799 79.6522 64.7552 79.3283 64.4966C79.2701 64.457 79.2305 64.443 79.1396 64.4407C77.3385 64.7669 75.4255 67.9381 74.6333 69.5249L74.1952 70.401C73.0022 68.1175 71.7277 65.8643 70.29 63.7253C68.8827 61.57 67.254 59.5615 65.6136 57.581C65.6136 57.581 66.266 57.1592 66.2683 57.1592C66.9953 56.4485 67.5266 55.5608 68.1068 54.729C74.0507 45.4506 74.2558 31.391 66.0213 23.385C63.6097 21.0549 60.5807 19.3842 57.3861 18.3707C56.9458 18.2518 56.3306 18.0281 55.8739 18.0072C55.5454 17.9676 55.1842 18.0072 54.851 18.0841L54.6576 17.7206C53.4041 15.4511 51.2581 13.4845 48.6694 12.9603C47.3855 12.7436 46.0038 12.7552 44.7246 13.0115C44.3774 13.0744 43.1937 13.4006 43.3242 13.7501C43.4291 14.0507 43.725 14.3187 43.9813 14.5587C44.6174 15.1202 45.4026 15.6095 46.1948 16.0639C47.0057 16.5019 47.7886 17.0029 48.6531 17.3384L52.952 19.2351L48.3199 18.4406C47.2783 18.2681 46.1599 18.1353 45.1207 18.2006C44.7968 18.2215 44.4473 18.2728 44.2306 18.4243C44.2306 18.4196 44.219 18.4336 44.212 18.4429C44.1933 18.4639 44.1654 18.5058 44.1607 18.5198C44.1537 18.5454 44.1584 18.5151 44.1607 18.5221C44.1607 18.5338 44.2003 18.5641 44.2283 18.6526C44.3098 18.8134 44.4962 19.0068 44.692 19.1839L46.5583 20.4025C46.2741 20.3349 44.2632 19.8176 43.9953 19.7734C43.2007 19.6522 42.3666 19.8013 41.6582 20.1811C37.7693 22.1407 34.703 25.6172 32.9484 29.5759C30.7605 34.4551 30.4599 40.0962 31.7321 45.2573C32.049 46.5458 32.515 47.797 32.9741 49.0925C34.216 52.357 34.6074 56.0687 33.9504 59.5172C33.736 60.8873 33.468 62.2784 33.1209 63.6181C31.7811 68.4227 30.9469 73.684 32.3333 78.5282C33.3795 82.007 35.7352 84.4769 38.6757 86.5366C41.3343 88.4683 44.4263 89.7312 47.6511 90.3183C56.1279 91.6302 65.2641 90.2298 72.6946 85.812C77.1521 83.1837 81.3904 79.4486 82.7442 74.2852H82.7395Z" fill="#1D1D1B"/>
<path d="M60.9077 51.7385C54.8099 52.617 51.4337 54.1082 47.3537 54.1525C43.2761 54.1944 35.7756 52.61 35.4238 52.5704C35.0743 52.5284 33.3198 52.1789 31.4441 52.2115C29.5684 52.2442 27.4643 51.5521 26.2131 49.9094C25.0177 49.963 23.9785 49.4854 23.5638 48.6535C23.3121 48.1479 23.3587 47.6516 23.382 47.4209C23.5102 46.1068 24.589 45.3192 24.9735 45.0746C25.7331 44.5899 26.4857 44.5107 26.7397 44.485C36.0063 43.5996 36.4793 43.807 37.7935 43.2431C41.4237 41.682 42.5119 38.0844 46.1584 38.1543C46.2842 38.1566 46.3774 38.1589 46.5172 38.1729C48.789 38.4013 49.3669 40.5193 52.5195 43.066C53.1975 43.6136 53.5913 43.9282 54.2297 44.2381C55.262 44.7414 56.6763 45.0885 58.7035 44.9091C59.2184 44.8625 64.9224 44.4151 66.1923 47.1343C66.2948 47.3534 66.3717 47.6003 66.4113 47.8799C66.4113 47.8799 67.0031 50.8624 60.9077 51.7385Z" fill="#FFCC33"/>
<path d="M23.8202 47.7989C24.1627 47.284 24.7429 46.571 25.6633 46.0887C26.6769 45.5574 27.4644 45.6366 29.904 45.5737C31.3882 45.5364 32.6045 45.5038 33.9513 45.3664C36.1602 45.138 37.2623 45.0238 38.3551 44.5019C39.893 43.7656 41.0277 42.5703 42.3069 41.2235C43.3135 40.1633 43.5232 39.7369 44.3574 39.3152C45.7158 38.6255 47.1907 38.721 47.2094 38.4041C47.214 38.3272 47.1278 38.2131 46.7107 38.0569C45.7344 38.2806 44.7581 38.5043 43.7818 38.728L40.8506 41.1792L38.7023 42.9035C38.7023 42.9035 32.495 44.0732 32.3436 44.0522C32.1898 44.0312 25.7239 44.7139 25.7239 44.7139L24.0765 46.1586C23.8482 46.8087 23.6198 47.4587 23.3938 48.1065C23.4054 48.1135 23.5313 48.1857 23.6618 48.1298C23.7783 48.0785 23.8482 47.9434 23.8272 47.8013L23.8202 47.7989Z" fill="#FFF3D4"/>
<path d="M32.1873 51.7458C30.484 51.3566 29.6429 51.0491 29.6662 50.8254C29.6848 50.6343 30.3326 50.5015 31.6071 50.4316C31.6071 50.4316 34.317 50.2638 36.1135 50.3337C38.5693 50.4269 38.8653 50.9628 41.7382 51.4195C43.0104 51.6223 45.7529 52.0393 49.008 51.6339C52.2585 51.2285 55.1524 50.1077 55.0941 49.8421C55.0639 49.7069 54.2204 49.6906 50.3035 50.3151C45.1797 49.7605 40.0582 49.206 34.9344 48.6538C34.9344 48.6538 28.6386 48.1015 26.3179 49.5974C26.6651 50.1683 27.0146 50.7415 27.3617 51.3124C27.8953 51.5407 28.6829 51.8063 29.6638 51.9042C30.7194 52.0114 31.5978 51.8832 32.185 51.7504L32.1873 51.7458Z" fill="#D1921B"/>
<path d="M43.4114 53.8832C43.416 53.79 44.4459 53.8669 46.55 53.6968C49.3344 53.4731 50.8652 53.07 51.958 52.6972C52.1281 52.6389 52.0978 52.6459 52.6128 52.4618C57.9463 50.5325 59.7731 50.2506 60.302 50.176C61.5602 50.0036 62.2103 49.978 62.2103 49.978C62.8161 49.9547 63.0398 49.985 63.5594 49.9127C64.0581 49.8428 64.5683 49.7706 65.0716 49.484C65.8429 49.046 66.2157 48.319 66.1994 48.305C66.1761 48.2864 65.5726 49.6448 64.2258 50.6094C62.18 52.075 60.8146 51.1547 57.45 51.8933C56.1638 52.1752 56.7067 52.2358 54.0621 53.0443C49.9961 54.2909 47.5169 54.3282 47.5169 54.3282C45.315 54.3888 43.409 54.0067 43.416 53.8785L43.4114 53.8832Z" fill="#D1921B"/>
<path d="M58.2583 48.2886C58.4004 48.2443 58.6311 48.1767 58.92 48.1161C59.4536 48.0043 60.4788 47.8039 61.6276 48.1278C61.9025 48.2047 62.2217 48.2955 62.5806 48.5216C62.8578 48.6963 63.2563 49.0155 63.2563 49.0155C62.9627 48.899 62.5526 48.7522 62.054 48.6311C61.7138 48.5495 61.3386 48.4796 60.7119 48.4097C60.1084 48.3445 59.2789 48.2816 58.2583 48.2862V48.2886Z" fill="#FFF3D4"/>
<path d="M60.3446 45.4296C60.5054 45.4063 60.7664 45.376 61.0902 45.3643C61.7566 45.3387 63.1127 45.3713 64.5504 46.0284C65.028 46.2474 65.3286 46.4501 65.6152 46.6435C66.1698 47.021 66.4494 47.2144 66.517 47.4847C66.6801 48.1301 65.7573 48.8315 65.6711 48.8944C65.6339 48.5146 65.5034 47.7899 64.9698 47.1398C64.5014 46.5713 63.9562 46.3406 63.2805 46.0657C62.6584 45.8117 61.6611 45.4925 60.3423 45.4296H60.3446Z" fill="#FFF3D4"/>
<path d="M60.9077 51.7385C54.8099 52.617 51.4337 54.1082 47.3537 54.1525C43.2761 54.1944 35.7756 52.61 35.4238 52.5704C35.0743 52.5284 33.3198 52.1789 31.4441 52.2115C29.5684 52.2442 27.4643 51.5521 26.2131 49.9094C25.0177 49.963 23.9785 49.4854 23.5638 48.6535C23.3121 48.1479 23.3587 47.6516 23.382 47.4209C23.5102 46.1068 24.589 45.3192 24.9735 45.0746C25.7331 44.5899 26.4857 44.5107 26.7397 44.485C36.0063 43.5996 36.4793 43.807 37.7935 43.2431C41.4237 41.682 42.5119 38.0844 46.1584 38.1543C46.2842 38.1566 46.3774 38.1589 46.5172 38.1729C48.789 38.4013 49.3669 40.5193 52.5195 43.066C53.1975 43.6136 53.5913 43.9282 54.2297 44.2381C55.262 44.7414 56.6763 45.0885 58.7035 44.9091C59.2184 44.8625 64.9224 44.4151 66.1923 47.1343C66.2948 47.3534 66.3717 47.6003 66.4113 47.8799C66.4113 47.8799 67.0031 50.8624 60.9077 51.7385Z" stroke="#1D1D1B" stroke-width="1.16503" stroke-miterlimit="10"/>
<path d="M63.3143 49.0448C58.8429 47.7726 57.4145 49.3547 53.4092 50.3893C51.2702 50.853 49.0636 51.0836 46.8733 50.9205C44.4711 50.7271 42.1223 50.1586 39.762 49.8207C36.6677 49.3687 33.5128 48.8864 30.3928 49.1077C28.8457 49.2219 27.3241 49.5761 25.8469 50.084L25.5952 49.4339C27.0865 48.8002 28.6779 48.3738 30.2996 48.1804C33.5314 47.8076 36.7422 48.2456 39.9344 48.6743C42.2971 49.0006 44.6109 49.5458 46.9666 49.7648C49.0426 49.9326 51.1304 49.7112 53.1878 49.4153C55.0099 49.1264 56.7412 48.4623 58.5889 48.2433C60.192 48.0942 61.8953 48.3831 63.3166 49.0448H63.3143Z" fill="#1D1D1B"/>
<path d="M42.994 42.0154C42.5839 41.8732 42.1226 42.4674 42.0503 42.5629C41.829 42.8612 41.589 43.4018 41.7661 43.5719C42.0363 43.8328 43.3482 43.2829 43.3668 42.6072C43.3738 42.3672 43.2177 42.0923 42.994 42.0154Z" fill="#1D1D1B" stroke="#1D1D1B" stroke-width="1.16503" stroke-miterlimit="10"/>
<path d="M48.447 42.1323C48.1347 41.9901 47.8225 42.0088 47.6571 42.1765C47.5173 42.3187 47.5219 42.526 47.5266 42.6146C47.5429 43.1435 48.0345 43.8285 48.6007 43.754C48.8897 43.7167 49.1949 43.479 49.2578 43.1621C49.3417 42.7521 49.0155 42.2604 48.447 42.1323Z" fill="#1D1D1B" stroke="#1D1D1B" stroke-width="1.16503" stroke-miterlimit="10"/>
</svg>
