<svg width="105" height="108" viewBox="0 0 105 108" fill="none" xmlns="http://www.w3.org/2000/svg">
<path d="M52.4308 100.072C81.1496 100.072 104.431 77.8352 104.431 50.4045C104.431 22.9738 81.1496 0.736877 52.4308 0.736877C23.712 0.736877 0.430786 22.9738 0.430786 50.4045C0.430786 77.8352 23.712 100.072 52.4308 100.072Z" fill="#4C64D9"/>
<path d="M63.3171 90.2457V95.8705C63.3171 95.8705 65.2884 97.7089 71.8335 98.7365C78.3787 99.764 78.2225 102.183 77.9732 102.91C77.647 103.856 73.6719 104.221 72.4463 104.27C71.2207 104.317 70.5799 105.177 68.8464 106.4C68.0938 106.931 67.5718 106.668 64.8526 105.312C62.1358 103.956 60.4348 102.553 59.3863 101.933C58.459 101.386 56.4248 99.7827 57.0423 98.4569C57.9673 96.474 58.7875 96.665 58.7106 95.2157C58.6337 93.7664 58.678 91.3525 58.678 91.3525L63.3148 90.2457H63.3171Z" fill="#FFCC33"/>
<path d="M63.546 89.9545C63.6952 91.7416 63.8932 94.0903 63.9748 95.8705L63.7651 95.3905C64.527 95.98 65.4241 96.3575 66.3211 96.707C67.7448 97.2452 69.257 97.611 70.7599 97.9093C72.8546 98.2821 75.1451 98.5967 76.9742 99.7547C78.1043 100.456 79.0736 101.81 78.5027 103.21C78.1975 103.828 77.4542 104.058 76.8693 104.242C75.3338 104.66 73.8566 104.797 72.3071 104.893C71.848 104.953 71.4706 105.181 71.0162 105.522C70.7855 105.699 69.6694 106.572 69.4551 106.722C69.3572 106.789 69.2058 106.906 69.1032 106.969C68.537 107.404 67.6283 107.295 67.0504 107.036C66.2885 106.74 65.5802 106.367 64.8579 106.016C62.9612 105.121 61.1461 103.872 59.4475 102.688C58.4921 102.094 57.5951 101.451 56.945 100.491C56.0362 99.1815 56.458 98.2448 57.3527 97.0821C57.7931 96.4973 58.4385 96.0895 58.3803 95.2973C58.3756 93.9459 58.4339 92.5711 58.5178 91.229C60.1535 90.7583 61.8614 90.318 63.5437 89.9568L63.546 89.9545ZM63.087 90.5347C61.6331 90.9238 60.214 91.229 58.7181 91.5133L58.8463 91.3548C58.8836 92.401 58.9209 93.4496 58.9884 94.4888C59.0141 95.027 59.1445 95.6422 58.9558 96.1827C58.7461 96.7559 58.343 97.1054 58.0471 97.5761C57.8187 97.9116 57.5298 98.4708 57.4366 98.8134C57.4086 100.025 59.1842 101.101 60.1115 101.675C61.8614 102.868 63.5227 103.979 65.4171 104.895C66.1068 105.233 66.7918 105.596 67.4932 105.871C67.88 105.992 68.1036 106.139 68.4415 105.925C68.5207 105.873 68.6559 105.776 68.7328 105.72C68.9238 105.585 70.0772 104.697 70.2892 104.531C70.8811 104.077 71.6197 103.679 72.4049 103.66C73.7773 103.588 75.243 103.443 76.5315 103.08C76.8414 102.998 77.2398 102.83 77.4029 102.693C77.4029 102.698 77.3983 102.705 77.4006 102.707L77.4076 102.679C77.7128 101.376 76.0398 100.547 75.0099 100.162C74.1059 99.8153 73.0434 99.5823 72.0857 99.4192C69.998 99.0813 67.859 98.6573 65.8691 97.9186C64.7367 97.4736 63.5367 97.0006 62.6466 96.1361C62.7375 94.2651 62.9519 92.4453 63.0893 90.5323L63.087 90.5347Z" fill="#1D1D1B"/>
<path d="M61.0184 102.395C61.072 102.299 62.0623 102.791 64.4716 103.683C66.8343 104.557 67.263 104.594 67.5309 104.604C69.0618 104.66 69.6932 103.965 71.2474 103.518C72.3542 103.199 73.9852 102.989 76.2034 103.546L71.7111 104.413L69.0548 106.249C68.3977 106.293 67.7383 106.335 67.0812 106.379C62.0437 103.308 60.9578 102.502 61.0161 102.395H61.0184Z" fill="#FFF3D4"/>
<path d="M60.3889 102.592C59.2728 100.384 59.6526 99.4468 59.8996 99.0717C60.7081 97.8484 63.2223 98.2259 68.2529 98.9855C72.8315 99.6775 74.127 100.43 74.6722 100.78C76.2497 101.789 77.2376 103.028 77.5638 102.788C77.8597 102.571 77.4916 101.234 76.6667 100.283C75.7324 99.2045 74.6908 99.1695 71.5779 98.4798C69.2385 97.9602 66.9457 97.2566 64.6203 96.681L63.0895 95.6185L63.4902 90.5553L58.674 91.718V95.8469L57.2596 98.4495L57.3971 100.185L60.3889 102.592Z" fill="#D1921B"/>
<path d="M63.546 89.9545C63.6952 91.7416 63.8932 94.0903 63.9748 95.8705L63.7651 95.3905C64.527 95.98 65.4241 96.3575 66.3211 96.707C67.7448 97.2452 69.257 97.611 70.7599 97.9093C72.8546 98.2821 75.1451 98.5967 76.9742 99.7547C78.1043 100.456 79.0736 101.81 78.5027 103.21C78.1975 103.828 77.4542 104.058 76.8693 104.242C75.3338 104.66 73.8566 104.797 72.3071 104.893C71.848 104.953 71.4706 105.181 71.0162 105.522C70.7855 105.699 69.6694 106.572 69.4551 106.722C69.3572 106.789 69.2058 106.906 69.1032 106.969C68.537 107.404 67.6283 107.295 67.0504 107.036C66.2885 106.74 65.5802 106.367 64.8579 106.016C62.9612 105.121 61.1461 103.872 59.4475 102.688C58.4921 102.094 57.5951 101.451 56.945 100.491C56.0362 99.1815 56.458 98.2448 57.3527 97.0821C57.7931 96.4973 58.4385 96.0895 58.3803 95.2973C58.3756 93.9459 58.4339 92.5711 58.5178 91.229C60.1535 90.7583 61.8614 90.318 63.5437 89.9568L63.546 89.9545ZM63.087 90.5347C61.6331 90.9238 60.214 91.229 58.7181 91.5133L58.8463 91.3548C58.8836 92.401 58.9209 93.4496 58.9884 94.4888C59.0141 95.027 59.1445 95.6422 58.9558 96.1827C58.7461 96.7559 58.343 97.1054 58.0471 97.5761C57.8187 97.9116 57.5298 98.4708 57.4366 98.8134C57.4086 100.025 59.1842 101.101 60.1115 101.675C61.8614 102.868 63.5227 103.979 65.4171 104.895C66.1068 105.233 66.7918 105.596 67.4932 105.871C67.88 105.992 68.1036 106.139 68.4415 105.925C68.5207 105.873 68.6559 105.776 68.7328 105.72C68.9238 105.585 70.0772 104.697 70.2892 104.531C70.8811 104.077 71.6197 103.679 72.4049 103.66C73.7773 103.588 75.243 103.443 76.5315 103.08C76.8414 102.998 77.2398 102.83 77.4029 102.693C77.4029 102.698 77.3983 102.705 77.4006 102.707L77.4076 102.679C77.7128 101.376 76.0398 100.547 75.0099 100.162C74.1059 99.8153 73.0434 99.5823 72.0857 99.4192C69.998 99.0813 67.859 98.6573 65.8691 97.9186C64.7367 97.4736 63.5367 97.0006 62.6466 96.1361C62.7375 94.2651 62.9519 92.4453 63.0893 90.5323L63.087 90.5347Z" fill="#1D1D1B"/>
<path d="M45.2576 90.8681V95.7472C45.2576 95.7472 42.9578 97.3689 36.0282 98.259C29.0986 99.1514 29.2198 101.421 29.5437 102.029C29.8675 102.637 33.4745 103.124 34.7723 103.164C36.0702 103.203 36.5105 104.622 37.3447 105.028C38.1789 105.433 40.0825 104.583 42.9602 103.406C45.8378 102.232 48.5383 101.309 49.6474 101.055C50.922 100.764 52.7674 99.4776 52.0381 98.2171C51.0035 96.4299 50.0529 96.4346 50.1344 95.1763C50.216 93.9204 50.1694 91.8257 50.1694 91.8257L45.2599 90.8657L45.2576 90.8681Z" fill="#FFCC33"/>
<path d="M45.7489 91.4674C45.9446 93.0752 45.9772 94.4965 45.8397 96.0973C44.8238 96.7776 43.6635 97.2064 42.5124 97.5768C40.4433 98.2293 38.3183 98.6184 36.1816 98.9166C34.6578 99.1403 33.1456 99.399 31.7498 100.009C31.2139 100.266 30.7339 100.522 30.3891 100.939C30.247 101.105 30.1305 101.356 30.1421 101.547C30.1444 101.601 30.1584 101.661 30.1701 101.68C30.1701 101.682 30.184 101.71 30.1514 101.652C30.1141 101.606 30.1165 101.606 30.1025 101.596C30.0908 101.589 30.1072 101.596 30.1072 101.596C30.2563 101.689 30.487 101.762 30.7339 101.836C31.9712 102.169 33.3786 102.356 34.6927 102.444C35.3055 102.437 35.9766 102.722 36.3937 103.122C36.8457 103.514 37.1509 104.019 37.5703 104.346C37.6426 104.392 37.7008 104.416 37.7894 104.423C38.1715 104.446 38.6771 104.304 39.0826 104.178C40.0425 103.873 41.0258 103.463 42.0091 103.069C44.4883 102.093 47.0118 101.128 49.6168 100.485C50.402 100.268 51.3573 99.7741 51.6695 98.9796C51.7558 98.6999 51.6416 98.5019 51.4878 98.2456C51.1616 97.684 50.7818 97.2739 50.3041 96.7613C50.1177 96.5516 49.901 96.279 49.7915 95.9342C49.6913 95.6312 49.6983 95.298 49.7263 94.9858C49.7962 93.9489 49.8102 92.8841 49.8195 91.8309L50.1014 92.1664C48.5776 92.015 47.2005 91.8239 45.7512 91.4604L45.7489 91.4674ZM44.7632 90.2698C46.6925 90.5657 48.6684 91.0294 50.5115 91.563C50.5441 92.721 50.5954 93.8651 50.5558 95.0371C50.5138 95.5846 50.6047 95.792 50.9612 96.1602C51.4086 96.5982 51.9492 97.1551 52.3103 97.7353C53.5779 99.4502 51.4598 101.144 49.8987 101.561C49.4024 101.689 48.8851 101.85 48.4028 102.013C46.4153 102.687 44.4627 103.484 42.5171 104.311C41.2775 104.812 40.0169 105.406 38.6701 105.727C37.4445 106.033 36.7036 105.658 35.9393 104.695C35.5968 104.294 35.3032 104.003 35.0213 103.924C34.8978 103.887 34.7603 103.873 34.6275 103.873C33.7327 103.828 32.8543 103.714 31.9712 103.567C31.0275 103.367 29.9883 103.279 29.1565 102.666C28.4248 101.955 28.7021 100.725 29.2986 100.044C31.5774 97.6188 36.0488 97.7819 39.1105 97.0945C40.1334 96.8941 41.1493 96.6565 42.1396 96.3629C43.0949 96.0716 44.0456 95.7501 44.9077 95.2491L44.6491 95.7478C44.5372 93.9839 44.5838 92.0173 44.7656 90.2721L44.7632 90.2698Z" fill="#1D1D1B"/>
<path d="M30.1117 101.951C31.1416 102.076 32.1738 102.202 33.2037 102.328C32.987 102.288 31.4118 101.99 31.3606 101.391C31.321 100.923 32.2344 100.497 32.7889 100.247C35.8646 98.8516 38.0455 99.7883 40.8672 98.2668C41.1911 98.092 41.4381 97.9312 41.5756 97.838C38.1737 98.3623 34.7718 98.8865 31.3699 99.4131L29.4546 101.256C29.6736 101.487 29.8926 101.72 30.1117 101.951Z" fill="#FFF3D4"/>
<path d="M45.258 90.8688V94.5899C45.258 94.5899 50.0323 96.4539 49.5057 98.0011C48.9791 99.5459 36.7556 104.553 36.7556 104.553L38.1024 105.131L48.1123 101.501L51.3837 100.189L52.4323 98.6139L49.9647 95.6873L50.1651 91.8311L45.2557 90.8711L45.258 90.8688Z" fill="#D1921B"/>
<path d="M45.7489 91.4674C45.9446 93.0752 45.9772 94.4965 45.8397 96.0973C44.8238 96.7776 43.6635 97.2064 42.5124 97.5768C40.4433 98.2293 38.3183 98.6184 36.1816 98.9166C34.6578 99.1403 33.1456 99.399 31.7498 100.009C31.2139 100.266 30.7339 100.522 30.3891 100.939C30.247 101.105 30.1305 101.356 30.1421 101.547C30.1444 101.601 30.1584 101.661 30.1701 101.68C30.1701 101.682 30.184 101.71 30.1514 101.652C30.1141 101.606 30.1165 101.606 30.1025 101.596C30.0908 101.589 30.1072 101.596 30.1072 101.596C30.2563 101.689 30.487 101.762 30.7339 101.836C31.9712 102.169 33.3786 102.356 34.6927 102.444C35.3055 102.437 35.9766 102.722 36.3937 103.122C36.8457 103.514 37.1509 104.019 37.5703 104.346C37.6426 104.392 37.7008 104.416 37.7894 104.423C38.1715 104.446 38.6771 104.304 39.0826 104.178C40.0425 103.873 41.0258 103.463 42.0091 103.069C44.4883 102.093 47.0118 101.128 49.6168 100.485C50.402 100.268 51.3573 99.7741 51.6695 98.9796C51.7558 98.6999 51.6416 98.5019 51.4878 98.2456C51.1616 97.684 50.7818 97.2739 50.3041 96.7613C50.1177 96.5516 49.901 96.279 49.7915 95.9342C49.6913 95.6312 49.6983 95.298 49.7263 94.9858C49.7962 93.9489 49.8102 92.8841 49.8195 91.8309L50.1014 92.1664C48.5776 92.015 47.2005 91.8239 45.7512 91.4604L45.7489 91.4674ZM44.7632 90.2698C46.6925 90.5657 48.6684 91.0294 50.5115 91.563C50.5441 92.721 50.5954 93.8651 50.5558 95.0371C50.5138 95.5846 50.6047 95.792 50.9612 96.1602C51.4086 96.5982 51.9492 97.1551 52.3103 97.7353C53.5779 99.4502 51.4598 101.144 49.8987 101.561C49.4024 101.689 48.8851 101.85 48.4028 102.013C46.4153 102.687 44.4627 103.484 42.5171 104.311C41.2775 104.812 40.0169 105.406 38.6701 105.727C37.4445 106.033 36.7036 105.658 35.9393 104.695C35.5968 104.294 35.3032 104.003 35.0213 103.924C34.8978 103.887 34.7603 103.873 34.6275 103.873C33.7327 103.828 32.8543 103.714 31.9712 103.567C31.0275 103.367 29.9883 103.279 29.1565 102.666C28.4248 101.955 28.7021 100.725 29.2986 100.044C31.5774 97.6188 36.0488 97.7819 39.1105 97.0945C40.1334 96.8941 41.1493 96.6565 42.1396 96.3629C43.0949 96.0716 44.0456 95.7501 44.9077 95.2491L44.6491 95.7478C44.5372 93.9839 44.5838 92.0173 44.7656 90.2721L44.7632 90.2698Z" fill="#1D1D1B"/>
<path d="M33.2904 81.849C18.4152 78.0697 32.822 61.1721 32.822 61.1721C32.6426 61.701 32.5075 62.0715 32.4399 62.2369C31.7199 64.0497 29.2803 70.1801 30.1238 75.3948C30.6481 78.6289 32.2954 80.6374 33.288 81.849H33.2904Z" fill="#FCF9ED"/>
<mask id="mask0_804_6734" style="mask-type:luminance" maskUnits="userSpaceOnUse" x="26" y="61" width="8" height="21">
<path d="M33.2904 81.849C18.4152 78.0697 32.822 61.1721 32.822 61.1721C32.6426 61.701 32.5075 62.0715 32.4399 62.2369C31.7199 64.0497 29.2803 70.1801 30.1238 75.3948C30.6481 78.6289 32.2954 80.6374 33.288 81.849H33.2904Z" fill="white"/>
</mask>
<g mask="url(#mask0_804_6734)">
<path d="M28.3811 68.9194C28.3811 68.9194 24.9582 76.1193 27.491 78.5473C28.4417 79.4606 29.7442 80.903 31.5034 81.6928C32.2816 82.0424 32.9737 82.2358 33.4793 82.3499C33.2486 81.7907 33.0179 81.2315 32.7873 80.6723C32.3888 79.9034 31.9904 79.1321 31.5919 78.3632C30.8696 78.0416 29.9516 77.4917 29.192 76.5481C26.7291 73.498 28.2576 69.2526 28.3834 68.9171L28.3811 68.9194Z" fill="#CDC2B7"/>
</g>
<path d="M83.5892 74.5158C82.5174 78.4536 80.1174 81.04 79.3788 81.7972C76.4965 84.7494 68.8562 90.7237 57.2455 91.5392C53.1027 91.8305 45.1548 92.3897 38.2112 87.3288C36.4194 86.0216 33.4439 83.8547 31.8944 79.9611C29.3989 73.6863 31.6847 65.6616 32.3605 63.2872C32.4234 63.0705 32.5445 62.5882 32.6937 61.9008C32.8964 60.9548 33.1527 59.615 33.3764 58.0259C33.4509 57.4947 33.4975 56.8935 33.5022 56.0943C33.5348 50.2692 31.2933 48.489 30.6059 42.6732C30.4265 41.1516 29.9652 36.8457 31.5706 31.885C34.4156 23.0936 41.2986 19.8269 42.5195 19.5543C43.2558 19.3912 43.9618 19.4378 43.9618 19.4378C44.1599 19.4518 44.3486 19.4774 44.5257 19.5123C44.0178 19.2607 43.5774 18.9298 43.5727 18.5291C43.5704 18.2867 43.7288 18.1073 43.7848 18.0421C44.5024 17.2126 47.9369 17.7811 48.4169 17.865C47.6014 17.5062 42.2912 15.1342 42.65 13.5031C42.897 12.38 45.7537 12.0002 47.9136 12.1866C52.7019 12.599 55.0436 17.145 55.1951 17.4502C61.6097 18.79 65.2446 21.9729 66.7499 23.4898C74.22 31.0135 74.0872 42.6871 71.2352 50.3787C69.9863 53.7479 68.2644 56.2248 67.0248 57.7673C67.5863 58.5199 68.1456 59.3005 68.7024 60.1044C70.8764 63.2453 72.6775 66.3396 74.1804 69.2918C76.0188 65.7105 78.3349 63.5715 79.444 63.9886C80.5741 64.415 80.919 67.6701 79.7586 71.8036C81.2918 70.3659 82.8366 69.646 83.5892 70.1306C84.6051 70.783 83.8828 73.4393 83.5892 74.5158Z" fill="#FCF9ED"/>
<mask id="mask1_804_6734" style="mask-type:luminance" maskUnits="userSpaceOnUse" x="30" y="12" width="55" height="80">
<path d="M83.5892 74.5158C82.5174 78.4536 80.1174 81.04 79.3788 81.7972C76.4965 84.7494 68.8562 90.7237 57.2455 91.5392C53.1027 91.8305 45.1548 92.3897 38.2112 87.3288C36.4194 86.0216 33.4439 83.8547 31.8944 79.9611C29.3989 73.6863 31.6847 65.6616 32.3605 63.2872C32.4234 63.0705 32.5445 62.5882 32.6937 61.9008C32.8964 60.9548 33.1527 59.615 33.3764 58.0259C33.4509 57.4947 33.4975 56.8935 33.5022 56.0943C33.5348 50.2692 31.2933 48.489 30.6059 42.6732C30.4265 41.1516 29.9652 36.8457 31.5706 31.885C34.4156 23.0936 41.2986 19.8269 42.5195 19.5543C43.2558 19.3912 43.9618 19.4378 43.9618 19.4378C44.1599 19.4518 44.3486 19.4774 44.5257 19.5123C44.0178 19.2607 43.5774 18.9298 43.5727 18.5291C43.5704 18.2867 43.7288 18.1073 43.7848 18.0421C44.5024 17.2126 47.9369 17.7811 48.4169 17.865C47.6014 17.5062 42.2912 15.1342 42.65 13.5031C42.897 12.38 45.7537 12.0002 47.9136 12.1866C52.7019 12.599 55.0436 17.145 55.1951 17.4502C61.6097 18.79 65.2446 21.9729 66.7499 23.4898C74.22 31.0135 74.0872 42.6871 71.2352 50.3787C69.9863 53.7479 68.2644 56.2248 67.0248 57.7673C67.5863 58.5199 68.1456 59.3005 68.7024 60.1044C70.8764 63.2453 72.6775 66.3396 74.1804 69.2918C76.0188 65.7105 78.3349 63.5715 79.444 63.9886C80.5741 64.415 80.919 67.6701 79.7586 71.8036C81.2918 70.3659 82.8366 69.646 83.5892 70.1306C84.6051 70.783 83.8828 73.4393 83.5892 74.5158Z" fill="white"/>
</mask>
<g mask="url(#mask1_804_6734)">
<path d="M32.9491 60.624C32.5949 61.3184 32.2617 61.7611 32.4388 62.2364C33.0353 63.8558 38.723 63.6578 43.3365 62.4019C47.491 61.2695 49.0778 59.7456 56.068 55.9756C59.3976 54.1791 62.1518 52.8463 63.855 52.0447C53.8707 52.2568 43.8841 52.4665 33.8998 52.6785C34.466 56.5534 33.7576 59.0373 32.9491 60.624Z" fill="#CDC2B7"/>
<path d="M31.5086 70.9583C31.9187 72.9063 32.7785 75.7 34.7544 78.4588C39.6569 85.3092 47.6979 86.7398 52.0039 87.5064C63.526 89.5569 72.9977 85.3767 76.9472 83.3263C75.7775 85.7496 74.6078 88.1728 73.4404 90.5984L39.58 94.1401C39.58 94.1401 34.843 88.1752 34.6682 87.8233C34.4934 87.4715 28.4399 83.2611 28.4399 83.2611C29.0155 80.8914 29.6026 78.5101 30.2015 76.1171C30.6349 74.3882 31.0706 72.6663 31.5086 70.956V70.9583Z" fill="#CDC2B7"/>
<path d="M59.9316 70.454C59.941 71.3348 60.1134 78.2994 65.4259 81.9016C66.3183 82.5051 69.0072 84.3296 72.4977 83.7773C73.241 83.6585 76.1279 83.1552 77.992 80.5199C79.2665 78.7164 79.4086 76.8454 79.4203 76.0555C78.0316 77.4256 76.6429 78.798 75.2565 80.1681L68.5971 80.662L62.6928 75.7945C61.7724 74.0144 60.8543 72.2342 59.934 70.454H59.9316Z" fill="#CDC2B7"/>
<path d="M78.4188 68.2499C78.9081 66.1458 78.6518 63.7831 78.6518 63.7831C78.8359 63.8461 79.5839 64.1233 80.0382 64.9272C80.3691 65.512 80.3668 66.1109 80.3318 66.5582C80.2176 67.9703 79.5163 70.997 78.314 74.8999C76.5222 73.8187 75.2663 73.0498 75.2779 73.0312C75.3501 73.0405 77.6546 71.5283 78.4165 68.2499H78.4188Z" fill="#CDC2B7"/>
<path d="M33.7904 27.735C33.8883 27.8096 34.5873 26.8403 35.9621 25.6077C38.8001 23.0586 41.4936 22.0963 42.1251 21.8796C43.3274 21.4695 44.3456 21.2854 44.9095 21.1992C46.3401 20.9825 47.5774 20.9965 48.5071 21.0687C47.8011 20.5561 47.1487 20.2439 46.6757 20.0528C46.3099 19.906 45.0749 19.4423 43.3833 19.4377C43.3833 19.4377 43.1713 19.4377 42.9802 19.4447C40.96 19.5309 37.8634 21.9844 37.1271 22.5809C34.2401 26.6818 33.6996 27.6628 33.7928 27.735H33.7904Z" fill="#CDC2B7"/>
<path d="M43.4832 13.3587C44.8952 13.4216 45.8878 13.9109 47.1274 14.54C49.2454 15.6118 50.6388 16.8584 51.2307 17.4223C51.9437 18.1003 52.4889 18.7341 52.8664 19.2095C51.3844 18.7761 49.7487 18.2099 48.0128 17.4573C45.967 16.5718 44.1869 15.6025 42.6723 14.6682C42.4533 14.2627 42.2343 13.8573 42.0153 13.4542C42.3648 13.3936 42.8727 13.3354 43.4809 13.361L43.4832 13.3587Z" fill="#CDC2B7"/>
<path d="M44 17.9277C44.2587 18.3354 44.5126 18.6034 44.6921 18.7688C45.4959 19.5121 46.3441 19.6519 47.5697 20.4861C47.7608 20.6166 48.0077 20.796 47.9821 20.8682C47.9542 20.9474 47.6326 20.8682 47.4951 20.8356C46.4699 20.5839 42.8257 19.6449 42.2688 19.5005C42.7721 19.2768 43.2754 19.0531 43.7787 18.8317L43.8602 17.8112L44 17.9277Z" fill="#CDC2B7"/>
<path d="M60.3705 70.454C61.7895 72.2505 64.3759 74.9417 68.3976 76.5285C70.1684 77.2275 74.8169 79.0613 77.6619 77.0015C78.4704 76.4167 78.9737 75.6314 79.0553 75.6967C79.1927 75.8062 78.0953 78.3343 75.7652 79.5366C73.8779 80.5129 71.9602 80.2147 71.161 80.0376C71.161 80.0376 66.664 79.4271 62.3021 74.3779C61.0975 72.9845 60.7037 71.7822 60.5918 71.4117C60.4707 71.0133 60.4078 70.6731 60.3728 70.454H60.3705Z" fill="white"/>
<path d="M78.7522 73.3368C81.6461 71.503 82.711 71.4192 83.1001 71.7826C83.4659 72.1228 83.2935 72.9127 83.4729 72.9337C83.7712 72.9686 84.3211 70.7691 84.3211 70.7691C84.3211 70.7691 83.0209 69.4759 82.8927 69.5435C82.7669 69.611 81.045 70.7691 81.045 70.7691L79.2392 72.4723C79.0761 72.7613 78.913 73.0502 78.7499 73.3391L78.7522 73.3368Z" fill="white"/>
<path d="M50.3005 31.5848C50.3354 31.8714 50.4799 32.7195 51.1882 33.4115C52.288 34.4834 53.7863 34.2457 53.9494 34.2177C53.5672 34.4251 52.8006 34.7746 51.7801 34.777C51.0857 34.777 50.5265 34.6162 50.1677 34.481C50.0069 34.3156 49.7972 34.05 49.69 33.6748C49.3824 32.596 50.2283 31.6617 50.2982 31.5871L50.3005 31.5848Z" fill="#CDC2B7"/>
<path d="M43.2043 30.6339C43.2532 30.8762 43.5212 32.3138 42.6777 33.1503C42.3049 33.5208 41.8132 33.6746 41.2796 33.84C40.6226 34.0451 40.0517 34.094 39.6672 34.1033C39.9212 34.2664 40.3127 34.4715 40.8183 34.5414C41.2097 34.595 41.501 34.546 41.8062 34.4994C42.2839 34.4272 42.9666 34.3387 43.845 34.2664C43.8404 33.9216 43.8217 33.5534 43.7798 33.162C43.6726 32.1787 43.4489 31.3259 43.2043 30.6315V30.6339Z" fill="#CDC2B7"/>
</g>
<path d="M49.5203 37.3511C49.5902 37.7146 49.6671 38.2621 49.6298 38.9309C49.5948 39.5577 49.5016 39.5763 49.5412 39.8512C49.6554 40.6388 50.5152 40.9464 51.6709 41.8318C52.815 42.7102 52.5936 42.8873 53.3183 43.3696C55.0146 44.502 57.1466 44.1455 58.4491 43.9288C59.5046 43.7518 60.7815 43.5397 62.0677 42.5471C63.242 41.6407 63.8339 40.5386 64.1065 39.9165C60.3248 40.3592 56.5454 40.8019 52.7637 41.2423C51.6826 39.9444 50.5991 38.6466 49.5179 37.3488L49.5203 37.3511Z" fill="#E8DDD4"/>
<path d="M41.8175 40.5202C42.7659 40.0076 43.3903 39.481 43.416 39.5137C43.4486 39.5556 42.4327 40.3921 41.9061 40.8278C40.2611 42.1816 39.8673 42.4262 39.3267 42.5963C38.8793 42.7385 38.5298 42.7594 37.8285 42.8014C36.7636 42.8643 35.6592 42.9295 34.5128 42.354C33.9396 42.0651 33.5714 41.7249 33.2988 41.4756C32.4973 40.7369 32.0919 39.9843 31.8286 39.4787C31.4441 38.7401 30.9222 37.5051 30.7544 35.8461C31.2111 36.6733 32.679 39.0709 35.7524 40.4177C37.4417 41.1563 38.9795 41.3008 39.9372 41.3148C40.3939 41.1727 41.0649 40.9327 41.8222 40.5226L41.8175 40.5202Z" fill="#E8DDD4"/>
<path d="M59.6462 67.4444C60.8671 71.8832 63.3207 76.6109 67.5894 78.6124C72.1936 80.6698 76.7558 79.4372 79.3958 75.0474L79.7616 75.8629C78.105 75.4062 75.437 74.6606 74.5912 73.0319L74.3372 72.4936C74.9198 72.482 75.5605 72.468 76.1407 72.4214C76.4902 72.3888 76.905 72.3655 77.2242 72.256L77.3267 72.8362C74.1928 72.4214 73.3027 69.0032 72.2052 66.5706C73.1326 67.9756 73.8433 69.5624 75.0409 70.7554C75.7306 71.4218 76.5205 71.967 77.4525 72.2164L78.2657 72.3865L77.5551 72.7965C76.7465 73.1577 75.8215 73.1507 74.957 73.2532L75.2879 72.701C76.1757 74.0548 79.1744 74.6326 80.7193 74.9216C79.4424 77.4963 77.4106 79.8007 74.6355 80.8306C71.4526 82.0376 67.6942 81.4318 64.9844 79.3953C61.3448 76.6481 59.4551 71.8971 59.6439 67.4444H59.6462Z" fill="#1D1D1B"/>
<path d="M49.1583 34.2726C49.3494 32.5647 50.0298 30.8963 51.0037 29.4983L51.034 29.5169C50.5121 30.6587 50.2045 31.8656 50.116 33.1052C50.0857 33.5107 50.0904 33.9161 50.088 34.3192L49.156 34.2749L49.1583 34.2726Z" fill="#1D1D1B"/>
<path d="M64.8698 37.8931C63.3296 41.083 58.3479 43.5156 54.233 41.9265C51.2948 40.7917 49.4261 37.8465 49.5985 34.7382L53.8579 34.7662C54.4078 37.3362 56.5281 38.5502 58.4621 37.4807C59.7669 36.7584 59.8322 36.5999 59.9976 34.8571L65.3964 34.8897C65.4593 35.6679 65.415 36.7584 64.8674 37.8931H64.8698Z" fill="white"/>
<path d="M49.7984 36.8589C50.0827 36.8263 50.367 36.796 50.6536 36.7681C55.7051 36.2718 60.5563 36.4768 65.1559 37.1735C65.1908 36.4116 65.2258 35.6496 65.2584 34.8877L49.7542 34.5009C49.7681 35.2861 49.7844 36.0737 49.7984 36.8589Z" fill="#EDEDED"/>
<path d="M64.8698 37.8931C63.3296 41.083 58.3479 43.5156 54.233 41.9265C51.2948 40.7917 49.4261 37.8465 49.5985 34.7382L53.8579 34.7662C54.4078 37.3362 56.5281 38.5502 58.4621 37.4807C59.7669 36.7584 59.8322 36.5999 59.9976 34.8571L65.3964 34.8897C65.4593 35.6679 65.415 36.7584 64.8674 37.8931H64.8698Z" stroke="#1D1D1B" stroke-width="0.932025" stroke-miterlimit="10"/>
<path d="M60.2682 34.8621C60.1354 36.605 59.1568 37.8772 57.8962 38.264C56.1836 38.7906 54.0236 37.3459 53.5856 34.7759L60.2682 34.8621Z" fill="#1D1D1B" stroke="#1D1D1B" stroke-width="0.932025" stroke-miterlimit="10"/>
<path d="M43.6327 34.1103C43.5605 32.6308 43.4067 31.0929 42.9453 29.6739L42.9779 29.6576C43.3787 30.3193 43.6513 31.0533 43.917 31.7803C44.1663 32.5306 44.4575 33.2832 44.5647 34.0707L43.6327 34.1103Z" fill="#1D1D1B"/>
<path d="M31.677 37.4164C32.9329 40.3639 36.9895 42.6124 40.3425 41.1445C42.7355 40.0959 44.2593 37.3744 44.1172 34.5015L40.9203 34.5434C40.473 36.9177 38.8512 38.2319 37.1014 37.7449C35.8152 37.3884 34.8156 36.2117 34.6804 34.6017L31.2436 34.6436C31.1923 35.3636 31.2273 36.3702 31.6746 37.4187L31.677 37.4164Z" fill="white"/>
<path d="M31.2807 36.8019C31.5161 36.7693 31.7514 36.7367 31.9891 36.7064C36.1739 36.1821 40.2049 36.3126 44.0308 36.9068C44.0495 36.1938 44.0658 35.4831 44.0844 34.7701L31.2108 34.6C31.2341 35.334 31.2574 36.068 31.2807 36.8019Z" fill="#EDEDED"/>
<path d="M31.677 37.4164C32.9329 40.3639 36.9895 42.6124 40.3425 41.1445C42.7355 40.0959 44.2593 37.3744 44.1172 34.5015L40.9203 34.5434C40.473 36.9177 38.8512 38.2319 37.1014 37.7449C35.8152 37.3884 34.8156 36.2117 34.6804 34.6017L31.2436 34.6436C31.1923 35.3636 31.2273 36.3702 31.6746 37.4187L31.677 37.4164Z" stroke="#1D1D1B" stroke-width="0.932025" stroke-miterlimit="10"/>
<path d="M34.6593 34.6164C34.7944 36.2264 35.7917 37.4031 37.0802 37.7596C38.8278 38.2466 40.4728 36.9185 40.9202 34.5418L34.6593 34.614V34.6164Z" fill="#1D1D1B" stroke="#1D1D1B" stroke-width="0.932025" stroke-miterlimit="10"/>
<path d="M33.378 81.7227C32.2363 81.7413 31.0876 81.3965 30.0297 80.9561C27.8418 80.0427 26.1269 77.9783 25.8869 75.5876C25.3673 70.112 29.4938 64.9113 32.728 60.8942L33.1311 60.4282C32.7443 61.6119 32.241 62.7653 31.9171 63.9559C30.7427 68.3714 30.561 73.1061 31.8309 77.5122C32.1804 78.7402 32.6208 79.9448 33.159 81.1029C33.2545 81.2893 33.3384 81.5223 33.378 81.7203V81.7227ZM33.1986 81.5759C33.0845 81.457 33.0122 81.3429 32.9586 81.1961C32.4483 80.0147 32.0126 78.8008 31.6794 77.5565C30.4468 73.1154 30.6029 68.3551 31.726 63.9047C31.9847 62.8888 32.3878 61.9171 32.7093 60.9362L32.912 61.0504C31.5653 62.7163 30.4212 64.5571 29.4868 66.4747C27.0356 71.6521 25.3813 77.5286 31.5163 80.6648C31.8891 80.8582 32.2922 81.0609 32.6744 81.2427C32.8654 81.3382 32.9796 81.4734 33.201 81.5759H33.1986Z" fill="#1D1D1B"/>
<path d="M84.4357 74.7465C82.9678 80.3829 78.4544 84.4931 73.6102 87.3614C68.7987 90.2204 63.33 91.9703 57.7518 92.4177C52.9356 92.8813 47.8258 92.7392 43.2122 91.0266C41.2224 90.2787 39.3117 89.2534 37.5945 88.0069C35.9052 86.7929 34.2066 85.3506 32.9413 83.638C29.8587 79.6 29.5022 74.1057 30.2012 69.2801C30.5251 66.7078 31.2707 64.2309 31.9021 61.7331C32.212 60.2908 32.5173 58.7459 32.6804 57.299C32.7899 56.0128 32.7456 54.6706 32.5825 53.3845C32.24 50.7095 31.0377 48.2304 30.4598 45.5601C28.6214 37.4492 30.7697 28.1918 37.1145 22.5717C38.5428 21.3111 40.1342 20.188 41.9097 19.4727C42.7625 19.1302 43.6876 19.0789 44.5963 19.1512L44.361 19.8432C43.9882 19.743 43.4825 19.5916 43.2053 19.2118C42.9023 18.79 42.9303 18.1353 43.2682 17.7508C44.2025 16.5532 47.185 17.1147 48.5131 17.2941L48.1799 18.3962C47.5322 18.0817 46.8681 17.8067 46.2134 17.5108C45.1182 16.9446 44.086 16.39 43.0957 15.5582C42.6577 15.1691 42.2662 14.7776 42.0426 14.1625C41.5439 12.6503 43.2938 11.879 44.4495 11.6903C49.3939 10.7536 53.3597 12.7691 55.7293 17.1823L55.3146 16.8607C56.002 17.3314 56.8175 17.4875 57.5841 17.7042L58.346 17.9489C65.723 20.2952 71.1893 26.2649 72.9229 33.8096C74.766 41.6712 73.3516 50.3717 68.7148 57.038C68.561 57.2617 68.4025 57.483 68.2418 57.7021C68.1066 57.9071 67.869 58.1471 67.7804 58.3778L67.8014 57.1871C70.2852 61.0247 72.6246 64.9532 74.6285 69.0634H73.7244C74.5726 67.4394 77.6506 62.3785 79.8851 63.66C81.7818 65.1419 80.8637 69.9442 80.3162 71.9644L79.3562 71.3819C80.5422 70.0211 83.5829 67.8192 84.7456 70.3613C85.2396 71.8176 84.7666 73.3671 84.4334 74.7488L84.4357 74.7465ZM82.7394 74.2851C82.9421 73.5744 83.1146 72.8847 83.2101 72.2137C83.2823 71.7384 83.3266 71.2118 83.1542 70.8133C83.1495 70.811 83.1495 70.7854 83.0703 70.776C82.6835 70.7248 82.3037 70.9112 81.9029 71.0883C80.894 71.5543 79.6568 72.6447 78.741 73.3321L79.1977 71.6475C79.7173 69.7974 80.0832 67.8448 79.8734 65.9388C79.8338 65.4798 79.6521 64.7552 79.3282 64.4965C79.27 64.4569 79.2303 64.4429 79.1395 64.4406C77.3383 64.7668 75.4254 67.938 74.6331 69.5248L74.1951 70.4009C73.0021 68.1174 71.7276 65.8643 70.2899 63.7253C68.8825 61.57 67.2538 59.5614 65.6135 57.5809C65.6135 57.5809 66.2659 57.1592 66.2682 57.1592C66.9952 56.4485 67.5264 55.5607 68.1066 54.7289C74.0506 45.4506 74.2557 31.391 66.0212 23.3849C63.6096 21.0548 60.5805 19.3842 57.386 18.3706C56.9456 18.2518 56.3305 18.0281 55.8738 18.0071C55.5453 17.9675 55.1841 18.0071 54.8509 18.084L54.6575 17.7205C53.4039 15.451 51.258 13.4845 48.6693 12.9602C47.3854 12.7435 46.0037 12.7551 44.7245 13.0115C44.3773 13.0744 43.1936 13.4006 43.3241 13.7501C43.4289 14.0507 43.7249 14.3186 43.9812 14.5586C44.6173 15.1202 45.4025 15.6095 46.1947 16.0638C47.0056 16.5019 47.7885 17.0029 48.6529 17.3384L52.9519 19.2351L48.3197 18.4405C47.2782 18.2681 46.1598 18.1353 45.1206 18.2005C44.7967 18.2215 44.4472 18.2727 44.2305 18.4242C44.2305 18.4195 44.2188 18.4335 44.2118 18.4428C44.1932 18.4638 44.1652 18.5057 44.1606 18.5197C44.1536 18.5454 44.1582 18.5151 44.1606 18.5221C44.1606 18.5337 44.2002 18.564 44.2282 18.6525C44.3097 18.8133 44.4961 19.0067 44.6918 19.1838L46.5582 20.4024C46.2739 20.3348 44.2631 19.8176 43.9951 19.7733C43.2006 19.6521 42.3664 19.8013 41.6581 20.1811C37.7692 22.1406 34.7029 25.6171 32.9483 29.5759C30.7604 34.455 30.4598 40.0961 31.732 45.2572C32.0489 46.5457 32.5149 47.797 32.9739 49.0925C34.2159 52.3569 34.6073 56.0687 33.9502 59.5172C33.7359 60.8873 33.4679 62.2783 33.1207 63.6181C31.781 68.4227 30.9468 73.684 32.3332 78.5282C33.3794 82.0069 35.7351 84.4768 38.6756 86.5366C41.3342 88.4682 44.4262 89.7311 47.651 90.3183C56.1278 91.6301 65.264 90.2297 72.6945 85.8119C77.1519 83.1836 81.3903 79.4485 82.7441 74.2851H82.7394Z" fill="#1D1D1B"/>
<path d="M60.907 51.7385C54.8092 52.6169 51.4329 54.1081 47.353 54.1524C43.2754 54.1944 35.7749 52.6099 35.4231 52.5703C35.0736 52.5284 33.319 52.1789 31.4433 52.2115C29.5676 52.2441 27.4636 51.5521 26.2123 49.9094C25.017 49.963 23.9778 49.4853 23.563 48.6535C23.3114 48.1478 23.358 47.6515 23.3813 47.4209C23.5095 46.1067 24.5883 45.3191 24.9727 45.0745C25.7323 44.5898 26.4849 44.5106 26.7389 44.485C36.0056 43.5996 36.4786 43.8069 37.7927 43.2431C41.423 41.6819 42.5111 38.0843 46.1577 38.1542C46.2835 38.1565 46.3767 38.1589 46.5165 38.1728C48.7883 38.4012 49.3662 40.5192 52.5187 43.066C53.1968 43.6135 53.5906 43.9281 54.229 44.238C55.2612 44.7413 56.6756 45.0885 58.7027 44.9091C59.2177 44.8625 64.9217 44.4151 66.1915 47.1343C66.2941 47.3533 66.371 47.6003 66.4106 47.8799C66.4106 47.8799 67.0024 50.8624 60.907 51.7385Z" fill="#FFCC33"/>
<path d="M23.8196 47.7989C24.1621 47.2839 24.7423 46.5709 25.6627 46.0886C26.6762 45.5574 27.4638 45.6366 29.9034 45.5737C31.3876 45.5364 32.6039 45.5038 33.9507 45.3663C36.1596 45.1379 37.2617 45.0238 38.3545 44.5018C39.8924 43.7655 41.0271 42.5702 42.3063 41.2234C43.3129 40.1633 43.5226 39.7369 44.3568 39.3151C45.7152 38.6254 47.1901 38.721 47.2088 38.4041C47.2134 38.3272 47.1272 38.213 46.7101 38.0569C45.7338 38.2806 44.7575 38.5043 43.7812 38.7279L40.85 41.1792L38.7017 42.9034C38.7017 42.9034 32.4944 44.0731 32.343 44.0521C32.1892 44.0312 25.7233 44.7139 25.7233 44.7139L24.0759 46.1585C23.8476 46.8086 23.6192 47.4587 23.3932 48.1064C23.4048 48.1134 23.5307 48.1857 23.6611 48.1297C23.7777 48.0785 23.8476 47.9433 23.8266 47.8012L23.8196 47.7989Z" fill="#FFF3D4"/>
<path d="M32.1866 51.7458C30.4833 51.3566 29.6421 51.0491 29.6654 50.8254C29.6841 50.6343 30.3318 50.5015 31.6064 50.4316C31.6064 50.4316 34.3162 50.2638 36.1127 50.3337C38.5686 50.4269 38.8645 50.9628 41.7375 51.4195C43.0097 51.6223 45.7522 52.0393 49.0073 51.6339C52.2577 51.2285 55.1517 50.1077 55.0934 49.8421C55.0631 49.7069 54.2196 49.6906 50.3028 50.3151C45.179 49.7605 40.0575 49.206 34.9337 48.6538C34.9337 48.6538 28.6379 48.1015 26.3171 49.5974C26.6643 50.1683 27.0138 50.7415 27.361 51.3124C27.8946 51.5407 28.6822 51.8063 29.6631 51.9042C30.7186 52.0114 31.5971 51.8832 32.1842 51.7504L32.1866 51.7458Z" fill="#D1921B"/>
<path d="M43.4105 53.8831C43.4152 53.7899 44.4451 53.8668 46.5491 53.6967C49.3335 53.473 50.8644 53.0699 51.9572 52.6971C52.1273 52.6389 52.097 52.6458 52.6119 52.4618C57.9455 50.5325 59.7722 50.2505 60.3011 50.176C61.5594 50.0036 62.2095 49.9779 62.2095 49.9779C62.8153 49.9546 63.039 49.9849 63.5586 49.9127C64.0572 49.8428 64.5675 49.7705 65.0708 49.4839C65.842 49.0459 66.2149 48.3189 66.1985 48.3049C66.1752 48.2863 65.5718 49.6447 64.225 50.6094C62.1792 52.075 60.8138 51.1546 57.4492 51.8932C56.163 52.1752 56.7059 52.2358 54.0612 53.0443C49.9953 54.2909 47.5161 54.3282 47.5161 54.3282C45.3142 54.3887 43.4082 54.0066 43.4152 53.8785L43.4105 53.8831Z" fill="#D1921B"/>
<path d="M58.2574 48.2885C58.3996 48.2442 58.6303 48.1766 58.9192 48.1161C59.4528 48.0042 60.478 47.8038 61.6267 48.1277C61.9017 48.2046 62.2209 48.2955 62.5797 48.5215C62.857 48.6963 63.2554 49.0155 63.2554 49.0155C62.9618 48.899 62.5518 48.7522 62.0531 48.631C61.7129 48.5495 61.3378 48.4796 60.711 48.4097C60.1075 48.3444 59.278 48.2815 58.2574 48.2862V48.2885Z" fill="#FFF3D4"/>
<path d="M60.3436 45.4295C60.5044 45.4062 60.7654 45.3759 61.0893 45.3643C61.7557 45.3386 63.1118 45.3713 64.5494 46.0283C65.0271 46.2474 65.3276 46.4501 65.6142 46.6435C66.1688 47.0209 66.4484 47.2143 66.516 47.4846C66.6791 48.13 65.7564 48.8314 65.6702 48.8943C65.6329 48.5145 65.5024 47.7899 64.9688 47.1398C64.5005 46.5712 63.9552 46.3406 63.2795 46.0656C62.6574 45.8116 61.6601 45.4924 60.3413 45.4295H60.3436Z" fill="#FFF3D4"/>
<path d="M60.907 51.7385C54.8092 52.6169 51.4329 54.1081 47.353 54.1524C43.2754 54.1944 35.7749 52.6099 35.4231 52.5703C35.0736 52.5284 33.319 52.1789 31.4433 52.2115C29.5676 52.2441 27.4636 51.5521 26.2123 49.9094C25.017 49.963 23.9778 49.4853 23.563 48.6535C23.3114 48.1478 23.358 47.6515 23.3813 47.4209C23.5095 46.1067 24.5883 45.3191 24.9727 45.0745C25.7323 44.5898 26.4849 44.5106 26.7389 44.485C36.0056 43.5996 36.4786 43.8069 37.7927 43.2431C41.423 41.6819 42.5111 38.0843 46.1577 38.1542C46.2835 38.1565 46.3767 38.1589 46.5165 38.1728C48.7883 38.4012 49.3662 40.5192 52.5187 43.066C53.1968 43.6135 53.5906 43.9281 54.229 44.238C55.2612 44.7413 56.6756 45.0885 58.7027 44.9091C59.2177 44.8625 64.9217 44.4151 66.1915 47.1343C66.2941 47.3533 66.371 47.6003 66.4106 47.8799C66.4106 47.8799 67.0024 50.8624 60.907 51.7385Z" stroke="#1D1D1B" stroke-width="1.16503" stroke-miterlimit="10"/>
<path d="M63.3139 49.0448C58.8425 47.7726 57.4142 49.3547 53.4088 50.3893C51.2698 50.853 49.0632 51.0836 46.873 50.9205C44.4707 50.7271 42.122 50.1586 39.7616 49.8207C36.6673 49.3687 33.5124 48.8864 30.3924 49.1077C28.8453 49.2219 27.3238 49.5761 25.8465 50.084L25.5948 49.4339C27.0861 48.8002 28.6775 48.3738 30.2992 48.1804C33.531 47.8076 36.7419 48.2456 39.9341 48.6743C42.2967 49.0006 44.6105 49.5458 46.9662 49.7648C49.0423 49.9326 51.13 49.7112 53.1874 49.4153C55.0096 49.1264 56.7408 48.4623 58.5885 48.2433C60.1916 48.0942 61.8949 48.3831 63.3162 49.0448H63.3139Z" fill="#1D1D1B"/>
<path d="M42.9931 42.0153C42.583 41.8732 42.1217 42.4674 42.0495 42.5629C41.8281 42.8611 41.5881 43.4017 41.7652 43.5718C42.0355 43.8328 43.3473 43.2829 43.3659 42.6072C43.3729 42.3672 43.2168 42.0922 42.9931 42.0153Z" fill="#1D1D1B" stroke="#1D1D1B" stroke-width="1.16503" stroke-miterlimit="10"/>
<path d="M48.4463 42.1323C48.1341 41.9901 47.8219 42.0088 47.6564 42.1765C47.5166 42.3187 47.5213 42.526 47.526 42.6146C47.5423 43.1435 48.0339 43.8285 48.6001 43.754C48.889 43.7167 49.1943 43.479 49.2572 43.1621C49.3411 42.7521 49.0149 42.2604 48.4463 42.1323Z" fill="#1D1D1B" stroke="#1D1D1B" stroke-width="1.16503" stroke-miterlimit="10"/>
</svg>
